<?xml version="1.0" encoding="utf-8"?>
<!-- Generator: Adobe Illustrator 18.0.0, SVG Export Plug-In . SVG Version: 6.00 Build 0)  -->
<!DOCTYPE svg PUBLIC "-//W3C//DTD SVG 1.1//EN" "http://www.w3.org/Graphics/SVG/1.1/DTD/svg11.dtd">
<svg version="1.1" id="Layer_1" xmlns="http://www.w3.org/2000/svg" xmlns:xlink="http://www.w3.org/1999/xlink" x="0px" y="0px"
	 viewBox="0 0 64 64" enable-background="new 0 0 64 64" xml:space="preserve">
<g id="XMLID_10_">
	<g>
		<g>
			<polygon fill="#E1E5EA" points="30.9,50 19,61 24,45 			"/>
		</g>
		<g>
			<polygon fill="#FF6A4D" points="63,3 24,45 19,61 16,39 			"/>
		</g>
		<g>
			<polygon fill="#FFFFFF" points="30.9,50 24,45 63,3 46,61 			"/>
		</g>
		<g>
			<polygon fill="#FFFFFF" points="63,3 16,39 1,27 			"/>
		</g>
	</g>
	<path fill="#2D2D2D" d="M64,3c0-0.1,0-0.2-0.1-0.3c0,0,0-0.1,0-0.1c0-0.1-0.1-0.1-0.1-0.2c0,0,0,0,0-0.1c0,0,0,0,0,0c0,0,0,0,0,0
		c-0.1-0.1-0.2-0.1-0.2-0.2c0,0,0,0,0,0c-0.1,0-0.2-0.1-0.3-0.1c0,0-0.1,0-0.1,0c-0.1,0-0.2,0-0.2,0c0,0-0.1,0-0.1,0c0,0,0,0-0.1,0
		l-62,24c-0.3,0.1-0.6,0.4-0.6,0.8c-0.1,0.4,0.1,0.7,0.4,0.9l14.7,11.8L18,61.1c0,0.1,0,0.2,0.1,0.3c0,0,0,0.1,0.1,0.1
		c0.1,0.2,0.3,0.4,0.5,0.4c0,0,0,0,0.1,0c0.1,0,0.2,0,0.3,0c0.1,0,0.3,0,0.4-0.1c0,0,0,0,0,0c0.1,0,0.1-0.1,0.2-0.1
		c0,0,0.1-0.1,0.1-0.1L31,51.3l14.4,10.5c0.2,0.1,0.4,0.2,0.6,0.2c0.1,0,0.2,0,0.3-0.1c0.3-0.1,0.5-0.4,0.6-0.7l17-58
		C64,3.2,64,3.1,64,3C64,3,64,3,64,3z M56.8,6.5L16,37.7L3,27.3L56.8,6.5z M19.4,56.4l-2.3-17L54.2,11l-31,33.3c0,0,0,0,0,0
		c0,0,0,0,0,0c0,0.1-0.1,0.1-0.1,0.2c0,0,0,0.1-0.1,0.1L19.4,56.4z M21.1,57.8l3.5-11.1l4.8,3.5L21.1,57.8z M45.4,59.4l-13.6-9.9
		c0,0,0-0.1,0-0.1c-0.1-0.2-0.3-0.2-0.5-0.3l-5.8-4.2L60.8,6.8L45.4,59.4z"/>
</g>
</svg>
